<svg width="233" height="46" viewBox="0 0 233 46" fill="none" xmlns="http://www.w3.org/2000/svg">
<g clip-path="url(#clip0_797_226)">
<path d="M1.52841 40.5455V11.4546H13.0057C15.2027 11.4546 17.0777 11.8476 18.6307 12.6335C20.1932 13.4101 21.3816 14.5133 22.196 15.9432C23.0199 17.3637 23.4318 19.0351 23.4318 20.9574C23.4318 22.8892 23.0152 24.5512 22.1818 25.9432C21.3485 27.3258 20.1411 28.3864 18.5597 29.125C16.9877 29.8637 15.0843 30.233 12.8494 30.233H5.16477V25.2898H11.8551C13.0294 25.2898 14.0047 25.1288 14.7812 24.8068C15.5578 24.4849 16.1354 24.0019 16.5142 23.358C16.9025 22.714 17.0966 21.9138 17.0966 20.9574C17.0966 19.9915 16.9025 19.1771 16.5142 18.5142C16.1354 17.8513 15.553 17.3494 14.767 17.0085C13.9905 16.6582 13.0104 16.483 11.8267 16.483H7.67898V40.5455H1.52841ZM17.2386 27.3068L24.4688 40.5455H17.679L10.6051 27.3068H17.2386ZM37.1712 40.9716C34.9647 40.9716 33.0566 40.5029 31.4467 39.5654C29.8464 38.6184 28.6106 37.3021 27.7393 35.6165C26.8681 33.9214 26.4325 31.9565 26.4325 29.7216C26.4325 27.4678 26.8681 25.4981 27.7393 23.8125C28.6106 22.1174 29.8464 20.8012 31.4467 19.8637C33.0566 18.9167 34.9647 18.4432 37.1712 18.4432C39.3776 18.4432 41.281 18.9167 42.8814 19.8637C44.4912 20.8012 45.7318 22.1174 46.603 23.8125C47.4742 25.4981 47.9098 27.4678 47.9098 29.7216C47.9098 31.9565 47.4742 33.9214 46.603 35.6165C45.7318 37.3021 44.4912 38.6184 42.8814 39.5654C41.281 40.5029 39.3776 40.9716 37.1712 40.9716ZM37.1996 36.2841C38.2034 36.2841 39.0414 36 39.7138 35.4318C40.3861 34.8542 40.8928 34.0682 41.2337 33.0739C41.584 32.0796 41.7592 30.9479 41.7592 29.679C41.7592 28.4101 41.584 27.2784 41.2337 26.2841C40.8928 25.2898 40.3861 24.5038 39.7138 23.9262C39.0414 23.3485 38.2034 23.0597 37.1996 23.0597C36.1863 23.0597 35.334 23.3485 34.6428 23.9262C33.9609 24.5038 33.4448 25.2898 33.0945 26.2841C32.7536 27.2784 32.5831 28.4101 32.5831 29.679C32.5831 30.9479 32.7536 32.0796 33.0945 33.0739C33.4448 34.0682 33.9609 34.8542 34.6428 35.4318C35.334 36 36.1863 36.2841 37.1996 36.2841ZM58.0661 40.9574C56.674 40.9574 55.4335 40.7159 54.3445 40.233C53.2554 39.7405 52.3937 39.0161 51.7592 38.0597C51.1342 37.0938 50.8217 35.8911 50.8217 34.4517C50.8217 33.2396 51.0443 32.2216 51.4893 31.3977C51.9344 30.5739 52.5405 29.911 53.3075 29.4091C54.0746 28.9072 54.9458 28.5284 55.9212 28.2727C56.906 28.0171 57.9382 27.8371 59.0178 27.733C60.2867 27.6004 61.3094 27.4773 62.0859 27.3637C62.8625 27.2405 63.4259 27.0606 63.7763 26.8239C64.1267 26.5871 64.3018 26.2368 64.3018 25.7727V25.6875C64.3018 24.7879 64.0178 24.0919 63.4496 23.5994C62.8909 23.107 62.0954 22.8608 61.0632 22.8608C59.9742 22.8608 59.1077 23.1023 58.4638 23.5852C57.8198 24.0587 57.3937 24.6553 57.1854 25.375L51.5888 24.9205C51.8729 23.5947 52.4316 22.4489 53.2649 21.483C54.0982 20.5076 55.1731 19.7595 56.4893 19.2387C57.8151 18.7083 59.3492 18.4432 61.0916 18.4432C62.3037 18.4432 63.4638 18.5852 64.5717 18.8693C65.6892 19.1534 66.6787 19.5938 67.5405 20.1904C68.4117 20.7869 69.0982 21.554 69.6001 22.4915C70.102 23.4195 70.353 24.5322 70.353 25.8296V40.5455H64.6143V37.5199H64.4439C64.0935 38.2017 63.6248 38.803 63.0376 39.3239C62.4505 39.8352 61.745 40.2377 60.9212 40.5313C60.0973 40.8154 59.1456 40.9574 58.0661 40.9574ZM59.799 36.7813C60.6892 36.7813 61.4751 36.6061 62.157 36.2557C62.8388 35.8958 63.3738 35.4129 63.7621 34.8068C64.1503 34.2008 64.3445 33.5142 64.3445 32.7472V30.4318C64.1551 30.5549 63.8947 30.6686 63.5632 30.7727C63.2412 30.8674 62.8767 30.9574 62.4695 31.0426C62.0623 31.1184 61.6551 31.1894 61.2479 31.2557C60.8407 31.3125 60.4714 31.3646 60.1399 31.4119C59.4297 31.5161 58.8094 31.6818 58.2791 31.9091C57.7488 32.1364 57.3369 32.4441 57.0433 32.8324C56.7498 33.2112 56.603 33.6847 56.603 34.2529C56.603 35.0767 56.9013 35.7065 57.4979 36.1421C58.1039 36.5682 58.871 36.7813 59.799 36.7813ZM93.201 24.9489L87.6612 25.2898C87.5665 24.8163 87.3629 24.3902 87.0504 24.0114C86.7379 23.6231 86.326 23.3154 85.8146 23.0881C85.3127 22.8513 84.7114 22.733 84.0107 22.733C83.0732 22.733 82.2824 22.9318 81.6385 23.3296C80.9946 23.7178 80.6726 24.2387 80.6726 24.8921C80.6726 25.4129 80.8809 25.8532 81.2976 26.2131C81.7143 26.5729 82.4292 26.8618 83.4425 27.0796L87.3913 27.875C89.5125 28.3106 91.094 29.0114 92.1357 29.9773C93.1773 30.9432 93.6982 32.2121 93.6982 33.7841C93.6982 35.214 93.2768 36.4688 92.4339 37.5483C91.6006 38.6279 90.4548 39.4707 88.9964 40.0767C87.5476 40.6733 85.8762 40.9716 83.9822 40.9716C81.094 40.9716 78.7929 40.3703 77.0788 39.1676C75.3743 37.9555 74.3752 36.3078 74.0817 34.2244L80.0334 33.9119C80.2133 34.7926 80.6489 35.465 81.3402 35.929C82.0315 36.3835 82.9169 36.6108 83.9964 36.6108C85.0571 36.6108 85.9093 36.4072 86.5533 36C87.2067 35.5833 87.5381 35.0483 87.5476 34.3949C87.5381 33.8457 87.3061 33.3958 86.8516 33.0455C86.397 32.6856 85.6963 32.411 84.7493 32.2216L80.9709 31.4688C78.8402 31.0426 77.254 30.304 76.2124 29.2529C75.1802 28.2017 74.6641 26.8618 74.6641 25.233C74.6641 23.8315 75.0429 22.6241 75.8004 21.6108C76.5675 20.5976 77.6423 19.8163 79.0249 19.2671C80.4169 18.7178 82.0457 18.4432 83.9112 18.4432C86.6669 18.4432 88.8355 19.0256 90.4169 20.1904C92.0078 21.3551 92.9358 22.9413 93.201 24.9489ZM109.114 18.7273V23.2727H95.9744V18.7273H109.114ZM98.9574 13.5H105.009V33.8409C105.009 34.3996 105.094 34.8352 105.264 35.1477C105.435 35.4508 105.671 35.6638 105.974 35.7869C106.287 35.9101 106.647 35.9716 107.054 35.9716C107.338 35.9716 107.622 35.9479 107.906 35.9006C108.19 35.8438 108.408 35.8012 108.56 35.7727L109.511 40.2756C109.208 40.3703 108.782 40.4792 108.233 40.6023C107.684 40.7349 107.016 40.8154 106.23 40.8438C104.772 40.9006 103.493 40.7065 102.395 40.2614C101.306 39.8163 100.458 39.125 99.8523 38.1875C99.2462 37.25 98.9479 36.0663 98.9574 34.6364V13.5ZM131.138 11.4546H137.288V30.3466C137.288 32.4678 136.782 34.3239 135.768 35.9148C134.765 37.5057 133.358 38.7462 131.55 39.6364C129.741 40.5171 127.634 40.9574 125.229 40.9574C122.814 40.9574 120.702 40.5171 118.893 39.6364C117.085 38.7462 115.679 37.5057 114.675 35.9148C113.671 34.3239 113.169 32.4678 113.169 30.3466V11.4546H119.32V29.821C119.32 30.929 119.561 31.9138 120.044 32.7756C120.536 33.6373 121.228 34.3144 122.118 34.8068C123.008 35.2993 124.045 35.5455 125.229 35.5455C126.422 35.5455 127.459 35.2993 128.339 34.8068C129.23 34.3144 129.916 33.6373 130.399 32.7756C130.892 31.9138 131.138 30.929 131.138 29.821V11.4546ZM148.499 11.4546V40.5455H142.349V11.4546H148.499Z" fill="white"/>
<path d="M201.756 27.7999C201.756 21.2159 207.363 15.7998 214.378 15.7998C221.394 15.7998 227 21.2159 227 27.7999C227 34.3838 221.394 39.7999 214.378 39.7999C207.363 39.7999 201.756 34.3838 201.756 27.7999Z" stroke="#53A5DF" stroke-width="2"/>
<path d="M193.942 2.96899L208.661 28.5159H179.223L193.942 2.96899Z" stroke="#D7DB2B" stroke-width="2"/>
<path d="M163.224 34.2431L183.115 39.5839L188.445 19.6483L168.554 14.3075L163.224 34.2431Z" stroke="#0C9866" stroke-width="2"/>
</g>
<defs>
<clipPath id="clip0_797_226">
<rect width="233" height="46" fill="white"/>
</clipPath>
</defs>
</svg>
